<svg xmlns="http://www.w3.org/2000/svg" viewBox="0 0 1600 720" role="img" aria-label="Asymmetric master screen with diagonal map and off-center light">
  <defs>
    <linearGradient id="room" x1="0" y1="0" x2="0" y2="1">
      <stop offset="0" stop-color="#2a160f" />
      <stop offset="1" stop-color="#090605" />
    </linearGradient>
    <linearGradient id="wood" x1="0" y1="0" x2="0" y2="1">
      <stop offset="0" stop-color="#654022" />
      <stop offset="1" stop-color="#28170d" />
    </linearGradient>
  </defs>

  <rect width="1600" height="720" fill="url(#room)" />
  <rect x="0" y="458" width="1600" height="262" fill="url(#wood)" />

  <ellipse cx="1080" cy="160" rx="300" ry="180" fill="#f2c680" opacity="0.24" />

  <rect x="470" y="206" width="930" height="236" rx="16" fill="#1b110c" opacity="0.56" />
  <rect x="500" y="224" width="236" height="204" rx="12" fill="#2a1a12" stroke="#b98a50" stroke-width="5" />
  <rect x="752" y="194" width="300" height="234" rx="12" fill="#24160f" stroke="#d7a563" stroke-width="5" />
  <rect x="1068" y="236" width="300" height="192" rx="12" fill="#2a1a12" stroke="#b5864c" stroke-width="5" />

  <rect x="250" y="530" width="830" height="132" rx="14" fill="#d6ac75" opacity="0.9" transform="rotate(-4 665 596)" />
  <path d="M318 586 L640 536 L996 618 L636 656 Z" fill="#986739" opacity="0.5" />

  <polygon points="1186,536 1222,602 1148,602" fill="#8f3023" />
  <polygon points="1238,548 1270,604 1206,604" fill="#d09f5d" />
  <circle cx="1328" cy="586" r="38" fill="#3d2316" />
  <circle cx="1318" cy="574" r="8" fill="#f1c987" />

  <rect x="1424" y="244" width="24" height="100" rx="6" fill="#845a35" />
  <ellipse cx="1436" cy="230" rx="24" ry="16" fill="#f3c888" opacity="0.86" />
</svg>
